<svg width="15" height="16" viewBox="0 0 15 16" fill="none" xmlns="http://www.w3.org/2000/svg">
<path d="M6.89333 12.9668L10.0833 6.73346H7.88333V2.70012L4.58333 8.93346H6.89333V12.9668ZM7.33333 15.1668C6.31889 15.1668 5.36556 14.9743 4.47333 14.5893C3.58111 14.2043 2.805 13.6818 2.145 13.0218C1.485 12.3618 0.9625 11.5857 0.5775 10.6935C0.1925 9.80123 0 8.8479 0 7.83346C0 6.81901 0.1925 5.86568 0.5775 4.97346C0.9625 4.08123 1.485 3.30512 2.145 2.64512C2.805 1.98512 3.58111 1.46262 4.47333 1.07762C5.36556 0.692622 6.31889 0.500122 7.33333 0.500122C8.34778 0.500122 9.30111 0.692622 10.1933 1.07762C11.0856 1.46262 11.8617 1.98512 12.5217 2.64512C13.1817 3.30512 13.7042 4.08123 14.0892 4.97346C14.4742 5.86568 14.6667 6.81901 14.6667 7.83346C14.6667 8.8479 14.4742 9.80123 14.0892 10.6935C13.7042 11.5857 13.1817 12.3618 12.5217 13.0218C11.8617 13.6818 11.0856 14.2043 10.1933 14.5893C9.30111 14.9743 8.34778 15.1668 7.33333 15.1668Z" fill="#894189"/>
<path d="M7.26667 12.5001L10.1667 6.83341H8.16667V3.16675L5.16667 8.83341H7.26667V12.5001ZM7.66667 14.5001C6.74444 14.5001 5.87778 14.3251 5.06667 13.9751C4.25556 13.6251 3.55 13.1501 2.95 12.5501C2.35 11.9501 1.875 11.2445 1.525 10.4334C1.175 9.6223 1 8.75564 1 7.83341C1 6.91119 1.175 6.04453 1.525 5.23341C1.875 4.4223 2.35 3.71675 2.95 3.11675C3.55 2.51675 4.25556 2.04175 5.06667 1.69175C5.87778 1.34175 6.74444 1.16675 7.66667 1.16675C8.58889 1.16675 9.45555 1.34175 10.2667 1.69175C11.0778 2.04175 11.7833 2.51675 12.3833 3.11675C12.9833 3.71675 13.4583 4.4223 13.8083 5.23341C14.1583 6.04453 14.3333 6.91119 14.3333 7.83341C14.3333 8.75564 14.1583 9.6223 13.8083 10.4334C13.4583 11.2445 12.9833 11.9501 12.3833 12.5501C11.7833 13.1501 11.0778 13.6251 10.2667 13.9751C9.45555 14.3251 8.58889 14.5001 7.66667 14.5001Z" fill="white"/>
</svg>
